<svg width="640" height="640" viewBox="0 0 640 640" fill="none" xmlns="http://www.w3.org/2000/svg">
<rect width="640" height="640" rx="128" fill="#F2F3F7"/>
<path d="M419.21 37.149C388.118 26.2269 354.831 20 320.031 20C291.883 20 264.757 24.1639 238.912 31.4095L238.934 217.448L419.21 37.149Z" fill="url(#paint0_linear_10_280)"/>
<path d="M590.578 191.109C564.278 136 521.797 90.2169 469.117 59.9316L337.94 191.109H590.578Z" fill="url(#paint1_linear_10_280)"/>
<path d="M34.9239 226.854C25.3398 256.198 20 287.449 20 319.972C20 349.784 24.4965 378.517 32.5855 405.702H213.795L34.9239 226.854Z" fill="url(#paint2_linear_10_280)"/>
<path d="M453.51 588.357C506.85 561.746 551.138 519.875 580.574 468.258L453.51 341.181V588.357Z" fill="url(#paint3_linear_10_280)"/>
<path d="M609.528 242.508H427.519L603.225 418.173C613.907 387.377 619.995 354.422 619.995 319.972C619.995 293.143 616.149 267.255 609.528 242.508Z" fill="url(#paint4_linear_10_280)"/>
<path d="M227.621 605.349C256.749 614.775 287.76 619.999 320.031 619.999C348.529 619.999 375.985 615.756 402.11 608.335V430.823L227.621 605.349Z" fill="url(#paint5_linear_10_280)"/>
<path d="M53.3853 457.123C80.9641 510.602 123.936 554.831 176.673 583.588L303.135 457.123H53.3853Z" fill="url(#paint6_linear_10_280)"/>
<path d="M187.495 51.1699C132.183 78.4904 86.3832 122.091 56.8059 176.045L187.495 306.733V51.1699Z" fill="url(#paint7_linear_10_280)"/>
<defs>
<linearGradient id="paint0_linear_10_280" x1="228.374" y1="208.879" x2="418.472" y2="41.9344" gradientUnits="userSpaceOnUse">
<stop stop-color="#A9AFBC"/>
<stop offset="0.55" stop-color="#D2D7E1"/>
<stop offset="1" stop-color="#E3E6ED"/>
</linearGradient>
<linearGradient id="paint1_linear_10_280" x1="324.642" y1="197.912" x2="589.073" y2="68.7432" gradientUnits="userSpaceOnUse">
<stop stop-color="#5D74FF"/>
<stop offset="0.58" stop-color="#7F90FF"/>
<stop offset="1" stop-color="#A3B1FF"/>
</linearGradient>
<linearGradient id="paint2_linear_10_280" x1="29.7462" y1="246.655" x2="218.625" y2="397.759" gradientUnits="userSpaceOnUse">
<stop stop-color="#B0B5C0"/>
<stop offset="0.5" stop-color="#9096A4"/>
<stop offset="1" stop-color="#7A818F"/>
</linearGradient>
<linearGradient id="paint3_linear_10_280" x1="441.625" y1="361.201" x2="584.198" y2="582.982" gradientUnits="userSpaceOnUse">
<stop stop-color="#2235C9"/>
<stop offset="0.55" stop-color="#344BDD"/>
<stop offset="1" stop-color="#4E67FF"/>
</linearGradient>
<linearGradient id="paint4_linear_10_280" x1="425.783" y1="249.092" x2="615.881" y2="411.163" gradientUnits="userSpaceOnUse">
<stop stop-color="#3951EA"/>
<stop offset="0.62" stop-color="#5B73FF"/>
<stop offset="1" stop-color="#7F91FF"/>
</linearGradient>
<linearGradient id="paint5_linear_10_280" x1="238.123" y1="602.479" x2="401.412" y2="429.442" gradientUnits="userSpaceOnUse">
<stop stop-color="#0C0C0C"/>
<stop offset="0.45" stop-color="#191919"/>
<stop offset="1" stop-color="#2C2C2C"/>
</linearGradient>
<linearGradient id="paint6_linear_10_280" x1="57.7733" y1="461.125" x2="300.27" y2="575.671" gradientUnits="userSpaceOnUse">
<stop stop-color="#545A66"/>
<stop offset="0.58" stop-color="#6F7683"/>
<stop offset="1" stop-color="#858D9A"/>
</linearGradient>
<linearGradient id="paint7_linear_10_280" x1="186.943" y1="57.7758" x2="49.2434" y2="179.633" gradientUnits="userSpaceOnUse">
<stop stop-color="#D0D5DF"/>
<stop offset="0.55" stop-color="#BEC4CF"/>
<stop offset="1" stop-color="#A8AFBD"/>
</linearGradient>
</defs>
</svg>
